<svg id="visual" viewBox="0 0 900 600" width="900" height="600" xmlns="http://www.w3.org/2000/svg" xmlns:xlink="http://www.w3.org/1999/xlink" version="1.1"><path d="M0 422L16.7 401.8C33.3 381.7 66.7 341.3 100 312.7C133.3 284 166.7 267 200 269.8C233.3 272.7 266.7 295.3 300 339.8C333.3 384.3 366.7 450.7 400 472.7C433.3 494.7 466.7 472.3 500 420.7C533.3 369 566.7 288 600 271.5C633.3 255 666.7 303 700 324.5C733.3 346 766.7 341 800 329.5C833.3 318 866.7 300 883.3 291L900 282L900 601L883.3 601C866.7 601 833.3 601 800 601C766.7 601 733.3 601 700 601C666.7 601 633.3 601 600 601C566.7 601 533.3 601 500 601C466.7 601 433.3 601 400 601C366.7 601 333.3 601 300 601C266.7 601 233.3 601 200 601C166.7 601 133.3 601 100 601C66.7 601 33.3 601 16.7 601L0 601Z" fill="#1892ce" stroke-linecap="round" stroke-linejoin="miter"></path></svg>